<?xml version="1.0" encoding="UTF-8" standalone="no"?>
<svg xmlns:inkscape="http://www.inkscape.org/namespaces/inkscape" xmlns:rdf="http://www.w3.org/1999/02/22-rdf-syntax-ns#" xmlns="http://www.w3.org/2000/svg" sodipodi:docname="xvigas_sprites_11.svg" xmlns:sodipodi="http://sodipodi.sourceforge.net/DTD/sodipodi-0.dtd" height="171" width="328" version="1.1" xmlns:cc="http://creativecommons.org/ns#" xmlns:xlink="http://www.w3.org/1999/xlink" inkscape:version="0.91 r13725" viewBox="0 0 328 171" xmlns:dc="http://purl.org/dc/elements/1.1/">
<g>
<g id="r" transform="translate(.5)">
<path id="a" d="m3.5 23.5 4.5-4.5" stroke="#c85014" stroke-width="1px"/>
<use xlink:href="#a" transform="translate(0,-5)" height="100%" width="100%" y="0" x="0"/>
<use xlink:href="#a" transform="translate(0,5)" height="100%" width="100%" y="0" x="0"/>
<path d="m8 29v-16" stroke="#c85014" stroke-width="1px"/>
</g>
<path d="m8 18.5h83" stroke="#c85014" stroke-width="1px"/>
<use xlink:href="#r" transform="matrix(-1,0,0,1,99,0)" height="100%" width="100%" y="0" x="0"/>
<g>
<g stroke="#c85014" stroke-width="1px" fill="#ffc700">
<circle cx="49.5" cy="18.5" r="3"/>
<path d="m30 19.5 7 7h-14z"/>
<circle id="e" cx="35" stroke="#c85014" cy="29" r="2.5" stroke-width="1px" fill="#ffc700"/>
</g>
<circle cy="21" cx="-18" r="0" fill="#000080"/>
<circle cy="21" cx="-18" r="0" fill="#000080"/>
</g>
<g transform="translate(-2,-8)" stroke="#000080" fill="none">
<circle stroke-width="2" cy="21" cx="185" r="12"/>
<g stroke-width="1px">
<ellipse rx="4" ry="12" cy="21" cx="185"/>
<ellipse rx="8" ry="12" cy="21" cx="185"/>
<path d="m185 33v-24"/>
<path d="m173 21h24"/>
<path d="m175 14h20"/>
<path d="m175 28h20"/>
</g>
</g>
<rect opacity=".5" height="5" width="5" stroke="#000" y="9.5" x="157.5" stroke-width="1px" fill="none"/>
<rect id="f" height="2" width="2" y="4" x="158"/>
<use xlink:href="#f" transform="translate(-3,13)" height="100%" width="100%" y="0" x="0"/>
<g id="o" transform="translate(220,-14)">
<rect id="d" height="22" width="17" stroke="#000" y="14.5" x="-90.5" stroke-width="1px" fill="none"/>
<g id="p">
<path d="m-88 33.5h2" stroke="#000" stroke-width="1px" fill="none"/>
<path id="k" d="m-85 33.5h4" stroke="#000" stroke-width="1px" fill="none"/>
<use xlink:href="#k" transform="translate(5)" height="100%" width="100%" y="0" x="0"/>
</g>
<use id="c" xlink:href="#p" transform="translate(0,-2)" height="100%" width="100%" y="0" x="0"/>
<use id="b" xlink:href="#c" transform="translate(0,-2)" height="100%" width="100%" y="0" x="0"/>
<use xlink:href="#b" transform="translate(0,-2)" height="100%" width="100%" y="0" x="0"/>
</g>
<path d="m132.5 3v7.5h11.5" stroke="#000" stroke-width="1px" fill="none"/>
<path opacity=".5" d="m132.5 10.5 2.5-3.5h3l1-1.5 1.5-0.5 2 0.5 0.5 1" stroke="#000" stroke-width="1px" fill="none"/>
<use xlink:href="#o" transform="translate(-20)" height="100%" width="100%" y="0" x="0"/>
<path id="i" opacity=".5" d="m115 3.5h6" stroke="#000" stroke-width="1px" fill="none"/>
<use xlink:href="#i" transform="translate(0,6)" height="100%" width="100%" y="0" x="0"/>
<g stroke="#000" fill="none">
<path opacity=".5" d="m118 4v5" stroke-width="1px"/>
<rect stroke-dasharray="1,1" stroke-dashoffset="0.5" height="127" width="95" y="39.5" x="2.5"/>
<rect stroke-opacity=".5" height="80" width="64" y="63" x="18" stroke-width="4"/>
</g>
<g id="q">
<g id="n" transform="matrix(2,0,0,2,-5.5,-39)">
<path d="m36 41v8.5" stroke="#000" stroke-width=".5" fill="none"/>
<path d="m34.5 46.5 1.5 3 1.5-3" stroke="#000" stroke-width=".5" fill="none"/>
</g>
<use xlink:href="#n" transform="matrix(1,0,0,-1,0,126)" height="100%" width="100%" y="0" x="0"/>
</g>
<g font-size="15px" font-family="Arial" fill="#000">
<text y="51.6" x="57.2">e</text>
<text y="133" x="65">b</text>
<text y="117" x="30.6">a</text>
</g>
<g id="m" transform="translate(0,6)">
<path d="m182.5 96.5h-65" stroke="#000"/>
<path id="g" d="m177 93.5 6 3-6 3" stroke="#000" fill="none"/>
<use xlink:href="#g" transform="matrix(-1 0 0 1 300 0)" height="100%" width="100%" y="0" x="0"/>
</g>
<rect stroke-dasharray="1,1" stroke-dashoffset=".5" height="127" width="95" stroke="#000" y="39.5" x="102.5" fill="none"/>
<rect height="80" stroke="#000" stroke-width="4" fill="none" rx="32" ry="40" width="64" stroke-opacity=".5" y="63" x="118"/>
<g font-size="15px" font-family="Arial" fill="#000000">
<text y="62.5" x="174.3">e</text>
<text y="101" x="135">b</text>
<text y="117" x="143.7">a</text>
</g>
<g id="l" transform="translate(29.5,2)">
<path d="m124 60v82" stroke="#000" fill="none"/>
<path id="h" d="m121 66 3-6 3 6" stroke="#000" fill="none"/>
<use xlink:href="#h" transform="matrix(1 0 0 -1 0 202.22)" height="100%" width="100%" y="0" x="0"/>
</g>
<use xlink:href="#e" transform="translate(-10)" height="100%" width="100%" y="0" x="0"/>
<use xlink:href="#d" transform="translate(240,-14)" height="100%" width="100%" y="0" x="0"/>
<path d="m151 17c0 2 2.5 2 2.5 0v-12c0-2.5 3-3 3.0312 1.0625" stroke="#000" stroke-width="1px" fill="none"/>
<use xlink:href="#l" transform="translate(-113)" height="100%" width="100%" y="0" x="0"/>
<use xlink:href="#m" transform="translate(-100,32)" height="100%" width="100%" y="0" x="0"/>
<use xlink:href="#q" transform="matrix(.70248 .71170 -.71170 .70248 170.12 -17.71)" height="100%" width="100%" y="0" x="0"/>
<g transform="translate(0,-5)">
<g>
<g>
<rect height="8" width="120" y="140" x="204"/>
<path d="m250 48v40h-40z" fill="#52c7ff"/>
<rect height="24" width="52" y="60" x="268" fill="#ffba0a"/>
</g>
<g stroke="#5c00a3" fill="none">
<path stroke-width="4" d="m294 128a15 15 0 0 1 -15 -15 15 15 0 0 1 15 -15 15 15 0 0 1 15 15"/>
<path d="m294 120 8 8-8 8" stroke-width="4.24"/>
</g>
</g>
<g fill="none">
<path d="m294 128h5.5" stroke="#5c00a3" stroke-width="4"/>
<path d="m220 122 14 14 14-14" stroke="#ff867a" stroke-width="4.24"/>
<path d="m234 96v38" stroke="#ff867a" stroke-width="4.24"/>
</g>
<path id="j" d="m212 158 10-10 10 10z" fill="#ad6a00"/>
<use xlink:href="#j" transform="translate(84)" height="100%" width="100%" y="0" x="0"/>
</g>
<g>
<path d="m208 0v2l6 2v16l-6 2v2h14v-2l-6-2v-16l6-2v-2z" />
<path d="m232 0v3h6v18h-6v3h14v-3h-6v-18h6v-3z" />
<path d="m254 0v2h8v20h-8v2h18v-2h-8v-20h8v-2z" />
<path d="m278 0v3h8v18h-8v3h18v-3h-8v-18h8v-3z" />
<path d="m302 0v4h8v16h-8v4h18v-4h-8v-16h8v-4z" />
</g>
</g>
</svg>
